<svg enable-background="new 0 0 200 70" viewBox="0 0 200 70" xmlns="http://www.w3.org/2000/svg" >
    <path  transform=" translate(-70, -125)" fill="#777" d="M90 145c-6 0-9 2-9 6 0 8 12 7 12 10 0 2-1 2-3 2h-4v-3h-5v6c3 1 6 1 9 1 6 0 9-2 9-6 0-7-12-6-12-10 0-2 2-2 4-2h3v3h4v-6c-2 0-4-1-8-1zm11 5h3v20h-3v5h11v-5h-3v-5c2 1 4 2 7 2 5 0 9-4 9-11s-4-11-9-11c-3 0-5 1-7 3v-3h-8zm8 4c1-3 3-4 5-4 3 0 5 2 5 6s-2 6-5 6c-2 0-4-1-5-3zm19 2c0 7 4 11 9 11 3 0 5-1 6-2v2h9v-4h-3v-18h-6v3c-1-2-3-3-6-3-5 0-9 4-9 11zm5 0c0-4 3-6 6-6 2 0 4 1 4 4v5c0 2-2 3-4 3-3 0-6-2-6-6zm32 11v-4h-3v-4c1-6 3-8 8-8h1v-6h-1c-4 0-6 2-8 4v-4h-8v5h2v13h-2v4zm15 0v-9h2l6 9h7v-4h-4l-5-7 6-6h3v-5h-11v5h2l-4 4h-2v-17h-9v4h3v22h-3v4zm28-22v5h3v13h-3v4h11v-4h-3v-18zm1-5c0 2 2 3 4 3 3 0 4-1 4-3s-1-3-4-3c-2 0-4 1-4 3zm27 16c0 4-2 6-5 6s-5-2-5-6 2-6 5-6 5 2 5 6zm6 0c0-7-5-11-11-11s-11 4-11 11 5 11 11 11 11-4 11-11zm1-11v5h4v8c0 6 2 9 7 9 1 0 3 0 5-1l-1-5c-1 1-2 1-3 1-2 0-3-1-3-4v-8h7v-5h-7v-6h-5v6z" />
</svg>